<?xml version="1.0" standalone="no"?>
<!DOCTYPE svg PUBLIC "-//W3C//DTD SVG 20010904//EN"
 "http://www.w3.org/TR/2001/REC-SVG-20010904/DTD/svg10.dtd">
<svg version="1.0" xmlns="http://www.w3.org/2000/svg"
 width="260.000000pt" height="260.000000pt" viewBox="0 0 260.000000 260.000000"
 preserveAspectRatio="xMidYMid meet">
<metadata>
Created by potrace 1.11, written by Peter Selinger 2001-2013
</metadata>
<g transform="translate(0.000000,260.000000) scale(0.100000,-0.100000)"
fill="#000000" stroke="none">
<path d="M0 1300 l0 -1300 1300 0 1300 0 0 1300 0 1300 -1300 0 -1300 0 0
-1300z m1052 703 c6 -7 17 -13 24 -13 29 0 34 -55 34 -393 0 -188 3 -386 7
-440 l6 -97 79 0 c85 0 140 -17 156 -47 11 -22 22 -337 13 -373 -10 -35 -63
-64 -105 -56 -63 12 -75 38 -84 177 l-7 124 -465 -3 c-256 -2 -473 -6 -482 -8
-16 -5 -18 -19 -18 -109 0 -124 -7 -147 -54 -169 -32 -15 -38 -15 -73 -1 -66
26 -74 52 -72 222 1 213 15 233 164 233 49 0 96 4 104 9 13 9 33 53 51 116 5
17 16 55 24 85 46 158 58 252 61 465 1 116 5 220 9 233 14 41 40 47 266 53
298 7 350 6 362 -8z m640 -6 c15 -12 32 -35 37 -50 7 -17 11 -120 11 -257 0
-138 4 -231 10 -235 19 -12 157 94 245 187 48 51 123 138 165 193 94 120 123
149 173 166 52 18 113 -3 140 -49 18 -31 18 -35 3 -75 -9 -23 -35 -63 -58 -89
-24 -25 -74 -86 -113 -135 -38 -48 -118 -137 -177 -196 l-107 -108 92 -101
c51 -56 108 -118 128 -138 72 -70 295 -316 312 -342 19 -30 23 -89 8 -117 -6
-10 -28 -25 -49 -35 -38 -17 -43 -17 -89 -2 -29 10 -58 28 -70 44 -11 15 -87
97 -170 182 -82 85 -195 205 -252 265 -56 61 -111 114 -121 119 -13 6 -27 4
-45 -8 l-25 -16 0 -274 0 -274 -35 -31 c-29 -25 -45 -31 -81 -31 -39 0 -51 5
-79 33 -27 27 -34 44 -40 90 -13 101 0 1219 14 1247 28 58 123 78 173 37z"/>
<path d="M740 1841 l-115 -6 -2 -75 c-6 -193 -38 -395 -89 -565 -15 -49 -27
-101 -28 -115 -1 -28 -26 -26 265 -22 l151 2 -6 385 c-3 213 -8 390 -11 395
-4 6 -16 9 -28 8 -12 -1 -74 -4 -137 -7z"/>
</g>
</svg>
